<mxfile host="app.diagrams.net" modified="2023-06-12T09:26:53.656Z" agent="Mozilla/5.0 (Windows NT 10.0; Win64; x64) AppleWebKit/537.36 (KHTML, like Gecko) Chrome/114.0.0.0 Safari/537.36" version="21.3.8" etag="AjorTdGjNnupxaymVNAV" type="github">
  <diagram name="Page-1" id="UDorMa8wUlHws4Vw80FA">
    <mxGraphModel>
      <root>
        <mxCell id="0" />
        <mxCell id="1" parent="0" />
      </root>
    </mxGraphModel>
  </diagram>
</mxfile>
